<?xml version="1.0" encoding="UTF-8"?>
<svg width="51px" height="40px" viewBox="0 0 51 40" version="1.1" xmlns="http://www.w3.org/2000/svg" xmlns:xlink="http://www.w3.org/1999/xlink">
    <!-- Generator: Sketch 58 (84663) - https://sketch.com -->
    <title>Group</title>
    <desc>Created with Sketch.</desc>
    <g id="Page-1" stroke="none" stroke-width="1" fill="none" fill-rule="evenodd">
        <g id="Desktop" transform="translate(-254.000000, -303.000000)" fill="#FFFFFF" fill-rule="nonzero">
            <g id="noun_Dice_328253" transform="translate(254.000000, 106.000000)">
                <g id="Group" transform="translate(0.000000, 197.000000)">
                    <path d="M19.6,16.34 L3.4,16.34 C1.52,16.34 0,17.87 0,19.74 L0,35.94 C0,37.82 1.53,39.34 3.4,39.34 L19.6,39.34 C21.48,39.34 23,37.81 23,35.94 L23,19.74 C23,17.87 21.47,16.34 19.6,16.34 Z M21,35.94 C21,36.71 20.37,37.34 19.6,37.34 L3.4,37.34 C2.63,37.34 2,36.71 2,35.94 L2,19.74 C2,18.97 2.63,18.34 3.4,18.34 L19.6,18.34 C20.37,18.34 21,18.97 21,19.74 L21,35.94 L21,35.94 Z" id="Shape"></path>
                    <circle id="Oval" cx="6" cy="22.34" r="2"></circle>
                    <circle id="Oval" cx="17" cy="22.34" r="2"></circle>
                    <circle id="Oval" cx="6" cy="33.34" r="2"></circle>
                    <circle id="Oval" cx="17" cy="33.34" r="2"></circle>
                    <path d="M50.16,17.58 L44.83,2.28 C44.35,0.92 43.06,0 41.62,0 C41.24,0 40.86,0.06 40.5,0.19 L25.2,5.52 C24.34,5.82 23.65,6.43 23.26,7.25 C22.86,8.07 22.81,8.99 23.11,9.85 L28.44,25.15 C28.92,26.51 30.21,27.43 31.65,27.43 C32.03,27.43 32.41,27.37 32.77,27.24 L48.07,21.91 C48.93,21.61 49.62,21 50.01,20.18 C50.4,19.36 50.45,18.44 50.16,17.58 Z M48.21,19.31 C48.05,19.65 47.76,19.9 47.41,20.02 L32.11,25.35 C31.39,25.6 30.57,25.2 30.33,24.49 L25,9.19 C24.88,8.84 24.9,8.46 25.06,8.12 C25.22,7.78 25.51,7.53 25.86,7.41 L41.16,2.08 C41.31,2.03 41.46,2 41.62,2 C42.21,2 42.75,2.38 42.94,2.94 L48.27,18.24 C48.39,18.59 48.37,18.97 48.21,19.31 Z" id="Shape"></path>
                    <circle id="Oval" cx="29.63" cy="10.33" r="2"></circle>
                    <circle id="Oval" cx="40.02" cy="6.71" r="2"></circle>
                    <circle id="Oval" cx="33.25" cy="20.72" r="2"></circle>
                    <circle id="Oval" cx="11.5" cy="28.18" r="2"></circle>
                    <circle id="Oval" cx="43.63" cy="17.1" r="2"></circle>
                </g>
            </g>
        </g>
    </g>
</svg>